<?xml version="1.0" encoding="UTF-8"?>
<!-- Created with Inkscape (http://www.inkscape.org/) -->
<svg width="134.76mm" height="15.413mm" version="1.1" viewBox="0 0 134.76 15.413" xmlns="http://www.w3.org/2000/svg" xmlns:xlink="http://www.w3.org/1999/xlink">
 <g transform="translate(-43.702 -135.75)">
  <image id="container" x="37.881" y="85.388" width="127" height="127" display="none" xlink:href=""/>
  <g id="logo-center" transform="matrix(.26458 0 0 .26458 -24.9 42.015)">
   <image id="icon_container" display="none" xlink:href=""/>
   <g id="title" style="font-variant-ligatures:normal">
    <g transform="matrix(1.11 0 0 1.11 -48.766 411.89)" aria-label="T">
     <path class="c1" d="m317.92-50.592v9.5049h-40.396v-9.5049zm-25.923 15.193c5.2568-4.1763 11.233 0 11.233 0v35.211h-11.305v-35.211z" fill="#38374b" stroke="#434146" stroke-miterlimit="2" stroke-width="0"/>
    </g>
    <g transform="matrix(1.11 0 0 1.11 -48.766 411.89)" stroke-miterlimit="2" stroke-width="0" aria-label="^R">
     <path class="c1" d="m352.76-31.871c3.3125 4.1763 2.1602 11.593-1.5117 13.897-1.9443 1.2246-3.5283 1.4404-5.1123 1.5127h-1.585-9.2881v16.488h-11.306v-50.404h20.594c12.098 0 19.01 5.4004 19.01 16.489 0 3.9604-0.79199 7.2007-2.3037 9.793 0.14355-1.0801 0.21582-2.4482 0-3.9604-0.14453-1.0078-0.36035-4.8242-3.8887-8.3525-5.1123-5.0405-12.385-4.8247-13.393-4.8247h-8.7129v15.41h8.7129c5.1836 0 8.3525-1.8003 8.9287-6.2646z" fill="#38374b" stroke="#434146"/>
     <path class="c3" d="m364.13-0.11571h-12.745l-4.0322-7.416c6.4082-0.7207 9.0732-5.2568 9.0732-5.2568z" fill="#9f8fed" stroke="#c1c2c4"/>
    </g>
    <g display="none" aria-label="O">
     <path class="c1" transform="translate(315.32 -125.13)" d="m127.29 99.856c0 14.762-11.737 25.851-27.291 25.851-15.553 0-27.29-11.089-27.29-25.851 0-14.545 11.737-25.562 27.29-25.562 15.554 0 27.291 11.017 27.291 25.562zm-27.074 15.986c8.2803 0 15.841-6.9854 15.841-15.914 0-8.8569-7.5606-15.77-15.841-15.77-8.4248 0-16.13 6.9126-16.13 15.77 0 8.7852 7.7773 15.914 16.058 15.914z" fill="#434146" stroke="#434146" stroke-miterlimit="2" stroke-width="0"/>
    </g>
    <g transform="matrix(1.11 0 0 1.11 -64.266 411.89)" aria-label="P">
     <path class="c1" transform="translate(370.26 -125.2)" d="m119.8 91.287c0 11.737-6.9121 17.426-19.01 17.426h-9.2881v16.489h-11.306v-50.404h20.594c12.098 0 19.01 5.4004 19.01 16.489zm-10.585 0.43213c0-5.5444-3.2402-7.6328-9.0723-7.6328h-8.7129v15.41h8.7129c5.7607-1e-5 9.0723-2.1602 9.0723-7.7769z" fill="#38374b" stroke="#434146" stroke-miterlimit="2" stroke-width="0"/>
    </g>
    <g transform="matrix(1.11 0 0 1.11 -64.266 411.89)" aria-label="H">
     <path class="c1" transform="translate(419.06 -125.2)" d="m78.147 125.2h11.305v-50.404h-11.305zm32.402-50.404v21.17h-12.601l-1.4473 9.2168h14.048v20.018h11.305v-50.404z" fill="#38374b" stroke="#434146" stroke-miterlimit="2" stroke-width="0"/>
    </g>
    <g transform="matrix(1.11 0 0 1.11 -64.266 411.89)" fill="#38374b" stroke="#434146" stroke-miterlimit="2" stroke-width="0" aria-label="O">
     <path class="c1" transform="translate(475.77 -125.13)" d="m127.29 99.856c0 14.762-11.737 25.851-27.291 25.851-15.553 0-27.29-11.089-27.29-25.851 0-14.545 11.737-25.562 27.29-25.562 15.554 0 27.291 11.017 27.291 25.562zm-27.074 15.986c8.2803 0 15.841-6.9854 15.841-15.914 0-8.8569-7.5606-15.77-15.841-15.77-8.4248 0-16.13 6.9126-16.13 15.77 0 8.7852 7.7773 15.914 16.058 15.914z"/>
     <path class="c1" d="m440.83-25.872c0 14.762-11.737 25.851-27.291 25.851-15.553 0-27.29-11.089-27.29-25.851 0-14.545 11.737-25.562 27.29-25.562 15.554 0 27.291 11.017 27.291 25.562zm-27.074 15.986c8.2803 0 15.841-6.9854 15.841-15.914 0-8.8569-7.5606-15.77-15.841-15.77-8.4248 0-16.13 6.9126-16.13 15.77 0 8.7852 7.7773 15.914 16.058 15.914z"/>
    </g>
    <g transform="matrix(1.11 0 0 1.11 -64.266 411.89)" stroke-miterlimit="2" stroke-width="0" aria-label="^R">
     <path class="c1" transform="translate(531 -125.05)" d="m108.71 93.303c3.3125 4.1763 2.1602 11.593-1.5117 13.897-1.9443 1.2246-3.5283 1.4404-5.1123 1.5127h-1.585-9.2881v16.488h-11.306v-50.404h20.594c12.098 0 19.01 5.4004 19.01 16.489 0 3.9604-0.79199 7.2007-2.3037 9.793 0.14355-1.0801 0.21582-2.4482 0-3.9604-0.14453-1.0078-0.36035-4.8242-3.8887-8.3525-5.1123-5.0405-12.385-4.8247-13.393-4.8247h-8.7129v15.41h8.7129c5.1836 0 8.3525-1.8003 8.9287-6.2646z" fill="#38374b" stroke="#434146"/>
     <path class="c3" transform="translate(531 -125.05)" d="m120.09 125.06h-12.745l-4.0322-7.416c6.4082-0.7207 9.0732-5.2568 9.0732-5.2568z" fill="#9f8fed" stroke="#c1c2c4"/>
    </g>
    <g transform="matrix(1.11 0 0 1.11 -64.266 411.89)" aria-label="A">
     <polygon class="c1" transform="translate(624.13 -125.27)" points="73.79 125.2 85.311 125.2 92.079 106.84 99.856 86.743 114.19 125.2 126.21 125.2 106.19 74.798 94.24 74.798" fill="#38374b" stroke="#434146" stroke-miterlimit="2" stroke-width="0"/>
    </g>
   </g>
  </g>
  <g transform="matrix(.67645 0 0 .67645 67.74 32.286)" fill="#434146">
   <g fill="#38374b">
    <path transform="matrix(.39114 0 0 .39114 -100.14 -47.728)" d="m583.76 559.36c-0.0482 7e-4 -0.0988 6e-3 -0.13281 0.01-0.068 8e-3 -0.0687 9e-3 -0.19727 0.0723-0.12859 0.0644-0.3853 0.19461-0.64257 0.41602-0.25725 0.2214-0.51446 0.53553-0.64649 0.875-0.13192 0.33947-0.1386 0.70409-0.13476 1.1328 3e-3 0.4287 0.0163 0.92149-0.10157 1.4609-0.11786 0.53948-0.36674 1.1245-0.61328 1.6211-0.24646 0.49661-0.41716 0.93987-0.56836 1.1582-0.0562 0.0811-0.10775 0.15627-0.15039 0.2207-0.53129-0.16171-0.86879-0.32268-1.0762-0.43164-0.21067-0.1107-0.28888-0.16826-0.39258-0.0859-0.1038 0.0821-0.23176 0.30443-0.32812 0.63672-0.0964 0.33229-0.16049 0.77481-0.16406 1.1035-3e-3 0.3287 0.0529 0.54182 0.43164 0.73828 0.37874 0.19635 1.0785 0.37605 2.2539 0.55468 1.1754 0.17871 2.826 0.35652 4.541 0.44922 1.7149 0.0928 3.495 0.0996 5.3457 0.0781 1.8506-0.0205 3.7713-0.071 5.5898-0.16407 1.8185-0.0928 3.5337-0.22937 4.7949-0.36523 1.2612-0.13576 2.0691-0.27103 2.5371-0.37109 0.46802-0.1 0.5959-0.16506 0.66015-0.19727 0.0642-0.0322 0.0657-0.0296 0.0586-0.17969-8e-3 -0.15007-0.0211-0.45034-0.0508-0.79687-0.0286-0.34655-0.0712-0.73858-0.16406-1.0137-0.0928-0.2751-0.23697-0.43359-0.39062-0.47657-0.15366-0.043-0.31685 0.0293-0.80274 0.19727-0.15842 0.0548-0.36146 0.11977-0.58008 0.18945-8e-3 -0.019-0.0165-0.0396-0.0293-0.0605-0.13847-0.22665-0.3219-0.6616-0.56836-1.1582-0.24654-0.4966-0.49737-1.0816-0.61524-1.6211-0.11786-0.53945-0.10216-1.0322-0.0996-1.4609 4e-3 -0.42872-3e-3 -0.79334-0.13476-1.1328-0.13203-0.33947-0.38924-0.65334-0.64649-0.875-0.25727-0.22166-0.51397-0.34964-0.64257-0.41406v-2e-3c-0.1286-0.0637-0.12926-0.0646-0.19727-0.0723-0.068-8e-3 -0.20347-0.0206-0.25 8e-3 -0.047 0.0286-6e-3 0.10122 0.01 0.24414 0.0136 0.14294-3.1e-4 0.35611 0.0391 0.50977 0.0393 0.1537 0.13183 0.24736 0.28906 0.34375 0.15718 0.0965 0.37823 0.19628 0.4961 0.35351 0.11786 0.15729 0.1331 0.37066 0.0508 0.63867-0.0822 0.26799-0.26039 0.59104-0.53907 0.95899-0.27867 0.36795-0.65678 0.78158-1.1855 1.2031-0.52877 0.42157-1.2083 0.85064-1.8906 1.3008-0.68237 0.45015-1.3694 0.92219-2.084 1.3438-0.71456 0.42156-1.4239 0.87154-1.8535 1.0078-0.18831 0.0597-0.30505 0.10648-0.375 0.14453-0.35079 0.0267-0.6628 0.0483-0.8418 0.043-0.1958-6e-3 -0.46848-0.0251-0.77343-0.0469-0.0694-0.0403-0.20493-0.0943-0.44922-0.16797-0.43151-0.13013-1.1409-0.58429-1.8555-1.0059-0.71453-0.42156-1.3997-0.8936-2.082-1.3438-0.68237-0.45014-1.3619-0.87924-1.8906-1.3008-0.52876-0.42156-0.90687-0.83517-1.1855-1.2031-0.27868-0.36795-0.45687-0.69097-0.53907-0.95899-0.0823-0.26798-0.0693-0.48138 0.0488-0.63867 0.11786-0.15723 0.34084-0.25703 0.49805-0.35351 0.15723-0.0964 0.24979-0.19005 0.28906-0.34375 0.0394-0.15366 0.0255-0.36683 0.0391-0.50977 0.0153-0.14292 0.0566-0.21551 0.01-0.24414-0.0233-0.0143-0.069-0.0183-0.11719-0.0176z" stroke-width="2.5566"/>
    <path d="m128.06 171.63c2e-3 0.0613 6e-3 0.18381 0.0603 0.31424 0.0544 0.13043 0.15911 0.26877 0.27375 0.38734 0.11464 0.11858 0.23912 0.21737 0.31914 0.26776 0.08 0.0504 0.11563 0.0524 0.16994-0.081 0.0543-0.13337 0.12743-0.40213 0.17981-0.68275 0.0524-0.28062 0.084-0.57309 0.1028-0.86458s0.0247-0.58199 0.0262-0.84187c1e-3 -0.25987-2e-3 -0.48911-0.0352-0.76303-0.0336-0.27393-0.0979-0.59253-0.22507-0.93909-0.12716-0.34656-0.3172-0.72105-0.49467-1.0369-0.17747-0.31581-0.34235-0.57292-0.57153-0.87197-0.22917-0.29905-0.52261-0.64001-0.78113-0.93905-0.25852-0.29905-0.48211-0.55616-0.79792-0.84543s-0.72383-0.61066-1.0704-0.82587c-0.34655-0.21521-0.63162-0.32421-0.84821-0.37452-0.21659-0.0503-0.36473-0.0419-0.42621-0.0209-0.0615 0.021-0.0364 0.0545 0.0671 0.15511 0.10344 0.10063 0.2851 0.26832 0.62746 0.62186 0.34237 0.35355 0.84542 0.89293 1.2381 1.3513s0.67493 0.83564 0.90271 1.1529c0.22777 0.31721 0.40104 0.57432 0.55755 0.85381 0.1565 0.27948 0.29624 0.58131 0.40942 0.89573 0.11319 0.31441 0.19983 0.6414 0.2641 0.9642 0.0643 0.3228 0.1062 0.6414 0.12295 0.94323 0.0168 0.30183 8e-3 0.5869-8e-3 0.7705-0.0164 0.1836-0.0408 0.26573-0.0529 0.30677-0.0122 0.041-0.012 0.0409-0.0101 0.10224z"/>
    <path d="m134.57 171.65c-2e-3 0.0613-6e-3 0.18381-0.0603 0.31424-0.0544 0.13044-0.15911 0.26877-0.27375 0.38734-0.11463 0.11858-0.23912 0.21737-0.31914 0.26776-0.08 0.0504-0.11562 0.0524-0.16994-0.081-0.0543-0.13337-0.12743-0.40212-0.17981-0.68275-0.0524-0.28062-0.084-0.57308-0.1028-0.86458-0.0188-0.29149-0.0247-0.58199-0.0262-0.84187-1e-3 -0.25987 2e-3 -0.48911 0.0352-0.76303 0.0336-0.27393 0.0979-0.59253 0.22507-0.93909 0.12716-0.34655 0.3172-0.72105 0.49467-1.0369 0.17746-0.31581 0.34235-0.57292 0.57153-0.87197 0.22917-0.29904 0.52262-0.64001 0.78114-0.93905 0.25851-0.29905 0.48209-0.55616 0.7979-0.84543s0.72384-0.61066 1.0704-0.82587c0.34655-0.21521 0.63161-0.3242 0.8482-0.37451 0.2166-0.0503 0.36474-0.0419 0.42622-0.0209 0.0615 0.021 0.0363 0.0545-0.0671 0.15513-0.10342 0.10062-0.28508 0.2683-0.62744 0.62185-0.34237 0.35354-0.84542 0.89292-1.2381 1.3513s-0.67493 0.83564-0.90271 1.1529c-0.22778 0.31721-0.40105 0.57433-0.55756 0.85381-0.1565 0.27948-0.29623 0.58131-0.40942 0.89573s-0.19982 0.6414-0.2641 0.9642c-0.0643 0.3228-0.10619 0.6414-0.12295 0.94323-0.0168 0.30183-8e-3 0.5869 8e-3 0.7705 0.0164 0.18361 0.0408 0.26573 0.0529 0.30678 0.0122 0.0411 0.0121 0.0409 0.0101 0.10222z"/>
    <path transform="matrix(.39114 0 0 .39114 -100.14 -47.728)" d="m607.48 517.53c-6e-3 1e-3 -0.0113 6e-3 -0.0156 0.0117-0.0128 0.0153-0.0195 0.0451-0.0195 0.0898-5e-3 0.17871 0.0571 0.58744 0.13867 1.3477 0.0816 0.76022 0.18424 1.8724 0.24023 2.9082 0.056 1.0357 0.0655 1.9951-6e-3 3.0664-0.0713 1.0713-0.22411 2.2536-0.50976 3.4219-0.28573 1.1684-0.70508 2.3229-1.2051 3.3281s-1.0806 1.8607-1.6367 2.5801c-0.55612 0.71933-1.0878 1.3012-1.6797 1.8828-0.59183 0.58166-1.2437 1.1644-1.5957 1.4043-0.35202 0.23981-0.40272 0.13623-0.48438-0.32813-0.0818-0.46431-0.1943-1.2891-0.35742-1.7637-0.16311-0.47451-0.37766-0.59695-1.8828-0.31641-1.5052 0.28057-4.3021 0.96302-6.5469 1.0957-2.2447 0.13269-3.9374-0.28467-5.2129-0.63672-1.2755-0.35203-2.133-0.63803-2.6484-0.76563-0.51532-0.12757-0.68847-0.0972-0.80078 0.0508-0.11224 0.14803-0.16483 0.41329-0.26172 0.90821-0.0969 0.49491-0.23856 1.2198-0.34571 1.582-0.10712 0.3622-0.17826 0.36214-0.48437 0.11719-0.30613-0.24493-0.84697-0.73446-1.4082-1.3008-0.56124-0.56632-1.1436-1.209-1.7559-2.0254-0.61227-0.81633-1.2554-1.8064-1.7656-2.9238-0.51023-1.1174-0.88788-2.3626-1.1328-3.4902-0.24493-1.1276-0.3564-2.138-0.40234-3.1074-0.046-0.9694-0.0262-1.8984 0.0352-2.832 0.0611-0.93371 0.16379-1.8711 0.24024-2.5293 0.0764-0.65818 0.12649-1.0359 0.13672-1.291 0.0102-0.25516-0.02-0.38808-0.32618-0.0156-0.30616 0.3724-0.88636 1.2494-1.4629 2.1934-0.57655 0.94389-1.1479 1.9544-1.5918 3.1738-0.44389 1.2194-0.76044 2.649-0.79102 4.2715-0.0307 1.6225 0.22309 3.4381 0.55469 4.9688 0.33167 1.5306 0.74105 2.7744 1.0625 3.6367 0.32144 0.86236 0.55594 1.3432 0.70898 1.5625 0.15314 0.21936 0.22485 0.17753 0.42383 0.0195 0.19891-0.15825 0.52514-0.4336 0.73438-0.52539 0.20913-0.0918 0.29989 3.7e-4 0.57031 0.42383 0.27039 0.42351 0.72103 1.1782 1.3945 2.0762s1.5701 1.939 2.5293 2.9492c0.9592 1.0102 1.9808 1.9899 2.8125 2.8574 0.83165 0.86737 1.4741 1.6219 2.0098 2.4434 0.5357 0.82145 0.96469 1.71 1.332 2.6387 0.36732 0.92858 0.67351 1.8984 0.90821 2.8984s0.39821 2.03 0.44921 3.0352c0.0509 1.0051-0.0115 1.9845-0.17968 3.0508-0.16849 1.0663-0.44406 2.2205-0.63282 2.9551-0.18868 0.7347-0.28961 1.0496-0.21289 1.3047 0.0767 0.25516 0.33173 0.44887 1.2246 1.0254 0.89289 0.57655 2.4116 1.5555 3.2891 2.0059 0.41539 0.21319 1.2279 0.22327 2.0059-0.11718 1.0004-0.43779 2.5973-1.6781 3.4238-2.2852 0.82652-0.60707 0.81626-0.70979 0.6836-1.2812-0.13269-0.57144-0.38826-1.6116-0.55664-2.7441-0.16849-1.1327-0.24851-2.3589-0.23828-3.6191 0.0102-1.2602 0.1119-2.556 0.39257-3.7754 0.28062-1.2194 0.73889-2.3609 1.3613-3.5293 0.62247-1.1684 1.4089-2.3628 2.2559-3.3984 0.84697-1.0357 1.7556-1.9133 2.582-2.7246 0.82649-0.81131 1.5708-1.5562 2.2188-2.3164 0.64796-0.76019 1.1989-1.5367 1.6836-2.2051 0.48468-0.66838 0.90302-1.2289 1.1582-1.4941 0.25515-0.2653 0.34637-0.23482 0.53516-0.13281 0.18868 0.10201 0.47502 0.27671 0.64843 0.33789 0.17334 0.0611 0.23551 9e-3 0.41407-0.33789 0.1787-0.34691 0.47384-0.98889 0.71874-1.6113 0.24493-0.62247 0.43938-1.2258 0.62305-1.8789 0.18357-0.65307 0.35716-1.3556 0.5-2.1719 0.14292-0.81634 0.2546-1.7448 0.25977-2.7754 5e-3 -1.0306-0.0975-2.1636-0.28125-3.2402-0.18357-1.0765-0.44851-2.0979-0.85157-3.1387-0.40305-1.0408-0.94338-2.1019-1.4434-2.9336-0.50001-0.83168-0.95931-1.4332-1.2246-1.7598-0.17405-0.21431-0.26538-0.31087-0.3086-0.30078z" stroke-width="2.5566"/>
   </g>
  </g>
  <circle cx="156.61" cy="139.04" r="3.2927" fill="#9f8fed" stroke-width=".26043"/>
 </g>
</svg>
