<?xml version="1.0" encoding="UTF-8"?>
<!-- Created with Inkscape (http://www.inkscape.org/) -->
<svg width="15.509mm" height="22.708mm" version="1.1" viewBox="0 0 15.509 22.708" xmlns="http://www.w3.org/2000/svg">
 <g transform="translate(-123.57 -152.97)">
  <g fill="#38374b">
   <path d="m128.06 171.09c-0.0503 0.0252-0.1509 0.0755-0.25153 0.1621-0.10062 0.0866-0.20123 0.20962-0.25287 0.3424-0.0516 0.13278-0.0543 0.27531-0.0528 0.443 1e-3 0.16768 7e-3 0.36051-0.0391 0.57151-0.0461 0.21101-0.14392 0.44017-0.24035 0.63441-0.0964 0.19424-0.19143 0.35353-0.22214 0.45277-0.0307 0.0993 3e-3 0.13834 0.17329 0.18863 0.17049 0.0503 0.47792 0.11177 0.84544 0.16348 0.36752 0.0517 0.7951 0.0936 1.2381 0.13415 0.44298 0.0405 0.90131 0.0796 1.2004 0.0964s0.43877 0.0112 0.49886-3e-3c0.0601-0.0139 0.0405-0.0363-0.1146-0.1202-0.1551-0.0838-0.44575-0.22918-0.72524-0.39407-0.27948-0.16489-0.54778-0.34935-0.81468-0.52542s-0.5324-0.34376-0.73922-0.50864c-0.20682-0.16489-0.35494-0.32699-0.46394-0.47091s-0.17888-0.2697-0.21103-0.37453c-0.0322-0.10482-0.0266-0.18863 0.0196-0.25015 0.0461-0.0615 0.13275-0.10063 0.19424-0.13837 0.0615-0.0377 0.0978-0.074 0.11316-0.13412 0.0154-0.0601 0.01-0.14389 0.0153-0.1998 6e-3 -0.0559 0.0223-0.0838 4e-3 -0.095-0.0182-0.0112-0.0712-6e-3 -0.0978-3e-3s-0.027 3e-3 -0.0773 0.0279z"/>
   <path d="m134.58 171.1c0.0503 0.0252 0.1509 0.0754 0.25153 0.1621 0.10062 0.0867 0.20123 0.20962 0.25287 0.3424 0.0516 0.13278 0.0543 0.27531 0.0528 0.443-1e-3 0.16768-7e-3 0.36051 0.0391 0.57151 0.0461 0.21101 0.14393 0.44016 0.24036 0.6344 0.0964 0.19424 0.19144 0.35354 0.22214 0.45278 0.0307 0.0992-3e-3 0.13833-0.1733 0.18862-0.17049 0.0503-0.47792 0.11178-0.84544 0.16349-0.36752 0.0517-0.7951 0.0936-1.2381 0.13415-0.44298 0.0405-0.9013 0.0796-1.2004 0.0964-0.29905 0.0168-0.43877 0.0112-0.49886-3e-3 -0.0601-0.0139-0.0405-0.0363 0.11461-0.1202 0.1551-0.0838 0.44575-0.22917 0.72524-0.39406 0.27948-0.16489 0.54778-0.34935 0.81468-0.52542s0.5324-0.34376 0.73922-0.50865c0.20682-0.16488 0.35494-0.32698 0.46394-0.4709s0.17888-0.2697 0.21103-0.37452c0.0322-0.10483 0.0265-0.18864-0.0196-0.25016-0.0461-0.0615-0.13276-0.10063-0.19424-0.13837-0.0615-0.0377-0.0978-0.074-0.11316-0.13412-0.0154-0.0601-0.01-0.14389-0.0153-0.1998-6e-3 -0.0559-0.0224-0.0839-4e-3 -0.0951 0.0182-0.0111 0.0712-6e-3 0.0978-3e-3s0.027 3e-3 0.0773 0.0279z"/>
   <path d="m126.82 173.89c-0.0335 0.0224-0.10062 0.0671-0.14813 0.11182-0.0475 0.0447-0.0754 0.0894-0.0545 0.13834 0.021 0.0489 0.0909 0.10203 0.37736 0.18027 0.28647 0.0782 0.78952 0.18164 1.3541 0.2571 0.56456 0.0755 1.1906 0.12297 1.8516 0.14806 0.66097 0.0251 1.3569 0.0277 1.9689 0.0151s1.1403-0.0406 1.6489-0.0909 0.99773-0.12296 1.3596-0.19842c0.36192-0.0755 0.59668-0.15372 0.71823-0.21095 0.12155-0.0572 0.12997-0.0936 0.11042-0.13836-0.0196-0.0447-0.067-0.0978-0.11314-0.13556-0.0461-0.0377-0.0908-0.0601-0.19144-0.042-0.10062 0.0182-0.25713 0.0768-0.71547 0.15789-0.45835 0.0811-1.2185 0.18446-1.8669 0.25014-0.64839 0.0657-1.185 0.0936-1.6769 0.0992-0.49189 6e-3 -0.93905-0.0112-1.4505-0.0489s-1.0872-0.0964-1.5721-0.16209c-0.4849-0.0657-0.87895-0.13834-1.1193-0.19143-0.24036-0.0531-0.32698-0.0866-0.37588-0.11036-0.0489-0.0237-0.0601-0.0377-0.0657-0.0447-6e-3 -7e-3 -6e-3 -7e-3 -0.0393 0.0157z"/>
   <path d="m136.45 175.17c-3e-3 -0.0587-8e-3 -0.17604-0.0196-0.31158-0.0112-0.13555-0.028-0.28927-0.0643-0.39687s-0.0922-0.16907-0.1523-0.18588c-0.0601-0.0168-0.12438 0.0111-0.31443 0.0768s-0.50585 0.16907-0.85519 0.24733c-0.34934 0.0783-0.73223 0.13136-1.1598 0.17188-0.4276 0.0405-0.89991 0.0684-1.3471 0.0866-0.44716 0.0182-0.86917 0.0266-1.2842 0.0238-0.41503-3e-3 -0.82306-0.0168-1.2213-0.0349-0.39826-0.0182-0.78673-0.0405-1.1612-0.0699-0.37451-0.0293-0.73502-0.0657-1.062-0.11598-0.327-0.0503-0.62044-0.11459-0.83424-0.17886-0.2138-0.0643-0.34795-0.12855-0.4304-0.17187-0.0824-0.0433-0.11317-0.0657-0.15373-0.0335-0.0406 0.0321-0.0909 0.11875-0.12859 0.24872-0.0377 0.12997-0.0629 0.30324-0.0643 0.43181-1e-3 0.12857 0.021 0.21241 0.16913 0.28925 0.14814 0.0768 0.42203 0.1467 0.88178 0.21657 0.45974 0.0699 1.1053 0.13974 1.7761 0.176 0.67075 0.0363 1.3666 0.0389 2.0905 0.0305 0.72385-8e-3 1.4756-0.028 2.1869-0.0644 0.71128-0.0363 1.382-0.0894 1.8753-0.14254 0.49329-0.0531 0.80908-0.10621 0.99215-0.14535 0.18306-0.0391 0.23335-0.0643 0.25848-0.0769 0.0251-0.0126 0.0252-0.0121 0.0224-0.0708z"/>
   <path d="m128.06 171.63c2e-3 0.0613 6e-3 0.18381 0.0603 0.31424 0.0544 0.13043 0.15911 0.26877 0.27375 0.38734 0.11464 0.11858 0.23912 0.21737 0.31914 0.26776 0.08 0.0504 0.11563 0.0524 0.16994-0.081 0.0543-0.13337 0.12743-0.40213 0.17981-0.68275 0.0524-0.28062 0.084-0.57309 0.1028-0.86458s0.0247-0.58199 0.0262-0.84187c1e-3 -0.25987-2e-3 -0.48911-0.0352-0.76303-0.0336-0.27393-0.0979-0.59253-0.22507-0.93909-0.12716-0.34656-0.3172-0.72105-0.49467-1.0369-0.17747-0.31581-0.34235-0.57292-0.57153-0.87197-0.22917-0.29905-0.52261-0.64001-0.78113-0.93905-0.25852-0.29905-0.48211-0.55616-0.79792-0.84543s-0.72383-0.61066-1.0704-0.82587c-0.34655-0.21521-0.63162-0.32421-0.84821-0.37452-0.21659-0.0503-0.36473-0.0419-0.42621-0.0209-0.0615 0.021-0.0364 0.0545 0.0671 0.15511 0.10344 0.10063 0.2851 0.26832 0.62746 0.62186 0.34237 0.35355 0.84542 0.89293 1.2381 1.3513s0.67493 0.83564 0.90271 1.1529c0.22777 0.31721 0.40104 0.57432 0.55755 0.85381 0.1565 0.27948 0.29624 0.58131 0.40942 0.89573 0.11319 0.31441 0.19983 0.6414 0.2641 0.9642 0.0643 0.3228 0.1062 0.6414 0.12295 0.94323 0.0168 0.30183 8e-3 0.5869-8e-3 0.7705-0.0164 0.1836-0.0408 0.26573-0.0529 0.30677-0.0122 0.041-0.012 0.0409-0.0101 0.10224z"/>
   <path d="m134.57 171.65c-2e-3 0.0613-6e-3 0.18381-0.0603 0.31424-0.0544 0.13044-0.15911 0.26877-0.27375 0.38734-0.11463 0.11858-0.23912 0.21737-0.31914 0.26776-0.08 0.0504-0.11562 0.0524-0.16994-0.081-0.0543-0.13337-0.12743-0.40212-0.17981-0.68275-0.0524-0.28062-0.084-0.57308-0.1028-0.86458-0.0188-0.29149-0.0247-0.58199-0.0262-0.84187-1e-3 -0.25987 2e-3 -0.48911 0.0352-0.76303 0.0336-0.27393 0.0979-0.59253 0.22507-0.93909 0.12716-0.34655 0.3172-0.72105 0.49467-1.0369 0.17746-0.31581 0.34235-0.57292 0.57153-0.87197 0.22917-0.29904 0.52262-0.64001 0.78114-0.93905 0.25851-0.29905 0.48209-0.55616 0.7979-0.84543s0.72384-0.61066 1.0704-0.82587c0.34655-0.21521 0.63161-0.3242 0.8482-0.37451 0.2166-0.0503 0.36474-0.0419 0.42622-0.0209 0.0615 0.021 0.0363 0.0545-0.0671 0.15513-0.10342 0.10062-0.28508 0.2683-0.62744 0.62185-0.34237 0.35354-0.84542 0.89292-1.2381 1.3513s-0.67493 0.83564-0.90271 1.1529c-0.22778 0.31721-0.40105 0.57433-0.55756 0.85381-0.1565 0.27948-0.29623 0.58131-0.40942 0.89573s-0.19982 0.6414-0.2641 0.9642c-0.0643 0.3228-0.10619 0.6414-0.12295 0.94323-0.0168 0.30183-8e-3 0.5869 8e-3 0.7705 0.0164 0.18361 0.0408 0.26573 0.0529 0.30678 0.0122 0.0411 0.0121 0.0409 0.0101 0.10222z"/>
   <path d="m137.46 154.7c-5e-3 6e-3 -7e-3 0.0177-7e-3 0.0352-2e-3 0.0699 0.0219 0.22956 0.0538 0.52691s0.0719 0.73235 0.0938 1.1375c0.0219 0.4051 0.0259 0.78026-2e-3 1.1993s-0.0878 0.88204-0.19953 1.339c-0.11176 0.45699-0.27539 0.90802-0.47096 1.3012s-0.42305 0.72834-0.64057 1.0097-0.4251 0.50885-0.6566 0.73635c-0.23149 0.22751-0.48695 0.45504-0.62463 0.54886-0.13769 0.0938-0.15759 0.0539-0.18953-0.12773-0.032-0.18161-0.0759-0.50481-0.1397-0.69042-0.0638-0.1856-0.14763-0.23349-0.73635-0.12376-0.58873 0.10974-1.6823 0.3771-2.5603 0.429s-1.5406-0.11168-2.0395-0.24938c-0.49891-0.13769-0.83419-0.24949-1.0358-0.2994-0.20156-0.0499-0.26936-0.0379-0.31329 0.02-0.0439 0.0579-0.0639 0.16158-0.1018 0.35516s-0.0938 0.47694-0.13571 0.61862c-0.0419 0.14167-0.0698 0.14171-0.18953 0.0459-0.11974-0.0958-0.33129-0.28733-0.55081-0.50884s-0.44695-0.47301-0.68643-0.79231-0.49093-0.70644-0.6905-1.1435c-0.19957-0.43705-0.34727-0.92395-0.44307-1.365-0.0958-0.44104-0.1397-0.83611-0.15767-1.2153-0.018-0.37917-0.01-0.74244 0.014-1.1076 0.0239-0.36521 0.0638-0.73237 0.0937-0.98981s0.0499-0.40508 0.0539-0.50486c4e-3 -0.0998-8e-3 -0.15168-0.12774-6e-3 -0.11975 0.14566-0.34726 0.48888-0.57276 0.85808-0.22551 0.36919-0.44899 0.76434-0.6226 1.2413-0.17362 0.47697-0.29735 1.0358-0.30931 1.6704-0.012 0.63462 0.0878 1.345 0.2175 1.9437 0.12973 0.59869 0.28937 1.0856 0.4151 1.4229s0.21758 0.52487 0.27744 0.61065c0.0599 0.0858 0.0878 0.0698 0.16563 8e-3 0.0778-0.0619 0.20552-0.16966 0.28736-0.20556 0.0818-0.0359 0.11776 9e-5 0.22353 0.16572 0.10576 0.16565 0.28135 0.4609 0.54478 0.81213s0.61463 0.75836 0.98981 1.1535 0.77429 0.77829 1.0996 1.1176c0.32529 0.33926 0.57676 0.6346 0.78629 0.9559s0.37721 0.66856 0.52089 1.0318c0.14367 0.3632 0.26336 0.74234 0.35516 1.1335s0.15568 0.79426 0.17563 1.1874c0.0199 0.39314-4e-3 0.77625-0.0698 1.1933-0.0659 0.41708-0.17369 0.86807-0.24752 1.1554-0.0738 0.28737-0.11371 0.4111-0.0837 0.51089 0.03 0.0998 0.12969 0.1756 0.47893 0.4011 0.34924 0.22551 0.94791 0.60067 1.2872 0.78425s0.41915 0.17567 0.78434-0.0459c0.36519-0.22152 1.0157-0.65657 1.339-0.89402 0.32328-0.23745 0.31932-0.27736 0.26743-0.50088-0.0519-0.22351-0.15164-0.63061-0.2175-1.0736-0.0659-0.44303-0.0978-0.92198-0.0938-1.4149 4e-3 -0.49293 0.0439-0.99983 0.15368-1.4768 0.10976-0.47697 0.28937-0.92391 0.53283-1.3809 0.24347-0.45701 0.55079-0.92401 0.88207-1.3291 0.33128-0.40511 0.68653-0.74837 1.0098-1.0657s0.61464-0.60862 0.86808-0.90597c0.25344-0.29734 0.46896-0.60072 0.65854-0.86215s0.35318-0.48095 0.45299-0.58471c0.0998-0.10377 0.13579-0.0917 0.20963-0.0518 0.0738 0.0399 0.18553 0.10771 0.25336 0.13164 0.0678 0.0239 0.0918 4e-3 0.16164-0.13173 0.0699-0.13569 0.18554-0.3871 0.28133-0.63056 0.0958-0.24347 0.17161-0.47897 0.24345-0.73441 0.0718-0.25544 0.13977-0.53082 0.19564-0.85011 0.0559-0.3193 0.0997-0.68248 0.10172-1.0856 2e-3 -0.40312-0.0378-0.84609-0.10968-1.2672-0.0718-0.42107-0.17565-0.82021-0.3333-1.2273s-0.36914-0.82218-0.5647-1.1475c-0.19557-0.3253-0.37516-0.56083-0.47893-0.68856-0.0778-0.0958-0.11306-0.13089-0.12663-0.11302zm-3.8748 8.847c0.0304-5e-3 0.0314 0.0104 4e-3 0.0489-0.0554 0.0771-0.22528 0.24703-0.43872 0.46244-0.21343 0.2154-0.47036 0.47622-0.67985 0.74895-0.20948 0.27272-0.37152 0.55734-0.498 0.89133s-0.21739 0.71736-0.27865 1.1739c-0.0613 0.45652-0.0929 0.98606-0.11662 1.4268-0.0237 0.44071-0.0395 0.79249-0.0118 1 0.0277 0.2075 0.0988 0.27076 0.16397 0.39527 0.0652 0.12451 0.12454 0.31024 0.16405 0.49995 0.0395 0.18971 0.0592 0.38342 0.0395 0.59685-0.0198 0.21342-0.0791 0.4466-0.16008 0.6541-0.081 0.20749-0.18379 0.38927-0.25493 0.56516-0.0711 0.17589-0.11061 0.3459-0.14025 0.50597-0.0296 0.16008-0.0495 0.31025-0.0751 0.38138-0.0257 0.0711-0.0573 0.0632-0.0711 0.0119-0.0139-0.0514-0.01-0.14622-0.0296-0.27467-0.0198-0.12845-0.0632-0.29053-0.11459-0.43084-0.0514-0.14032-0.1107-0.25885-0.18777-0.40509-0.0771-0.14625-0.17192-0.32015-0.22529-0.49801-0.0534-0.17786-0.0652-0.35964-0.0692-0.54145s3e-5 -0.36368 0.0396-0.5534c0.0395-0.18973 0.1146-0.38732 0.17193-0.49801 0.0573-0.11069 0.0969-0.13441 0.12255-0.20157 0.0257-0.0672 0.0375-0.17786 0.0435-0.43872s6e-3 -0.67191-0.01-0.99601c-0.0158-0.3241-0.0474-0.56124-0.0691-0.81815-0.0217-0.25692-0.0336-0.53355-0.11858-0.86753-0.085-0.33398-0.24305-0.72526-0.45844-1.0968-0.21541-0.37153-0.48816-0.72325-0.73914-1.0039s-0.48016-0.49014-0.59481-0.5949c-0.11464-0.10477-0.11472-0.10482 0.0928-0.0376 0.20754 0.0672 0.6226 0.20157 0.99018 0.30829 0.36757 0.10671 0.68769 0.18577 1.1047 0.18971 0.41697 4e-3 0.93074-0.0671 1.3378-0.1798 0.4071-0.11265 0.70751-0.26676 0.88735-0.35174 0.0899-0.0425 0.1497-0.0677 0.18008-0.0726z"/>
  </g>
  <g fill="#9f8fed">
   <path d="m131.37 152.97a4.831 4.8132 0 0 0-4.831 4.8132 4.831 4.8132 0 0 0 4.831 4.8132 4.831 4.8132 0 0 0 4.831-4.8132 4.831 4.8132 0 0 0-4.831-4.8132zm-0.0136 0.45104c0.26401 2e-3 0.53191 0.0283 0.81204 0.0817 0.37351 0.0711 0.76875 0.1897 1.1561 0.38536 0.38734 0.19565 0.76678 0.46844 1.0849 0.80638 0.31817 0.33795 0.57512 0.74108 0.751 1.0968 0.17587 0.35572 0.27071 0.66394 0.33394 0.97026 0.0632 0.30631 0.0949 0.61071 0.11265 0.89134 0.0178 0.28062 0.0217 0.53745-0.085 0.80619-0.10672 0.26875-0.3241 0.54937-0.54543 0.7786-0.22134 0.22924-0.44657 0.4071-0.69162 0.58101-0.24505 0.1739-0.50989 0.34392-0.91106 0.52968-0.40117 0.18577-0.9387 0.38728-1.3458 0.51968-0.4071 0.13241-0.68372 0.1957-0.88531 0.30441-0.2016 0.10869-0.32806 0.26278-0.39129 0.38137-0.0632 0.1186-0.0633 0.2016-0.0514 0.27078 0.0119 0.0692 0.0356 0.12452 4e-3 0.14821-0.0316 0.0237-0.11851 0.0157-0.30033-0.0198-0.18181-0.0356-0.4585-0.0988-0.72134-0.20944-0.26284-0.11066-0.51187-0.26874-0.73914-0.43474s-0.43278-0.33985-0.56915-0.47225c-0.13636-0.1324-0.20358-0.22331-0.34784-0.44465-0.14427-0.22133-0.36553-0.57313-0.53154-0.94071s-0.27672-0.75098-0.33404-1.1186c-0.0573-0.36759-0.0612-0.71937-0.0375-1.0534 0.0237-0.33398 0.075-0.65009 0.21732-1.0236 0.14229-0.37352 0.37551-0.80434 0.64428-1.1601s0.57312-0.63634 0.92292-0.87744 0.74499-0.44267 1.1165-0.57507c0.37154-0.13241 0.71939-0.19572 1.0692-0.21548 0.0875-5e-3 0.17499-7e-3 0.26299-7e-3z"/>
   <path d="m133.55 159.51c0.0908-0.0363 0.2725-0.109 0.4849-0.22778s0.45554-0.28367 0.63161-0.45275c0.17607-0.16907 0.28506-0.34234 0.36331-0.52819 0.0783-0.18585 0.12577-0.38428 0.14952-0.59109 0.0238-0.2068 0.0238-0.42199 0.01-0.6316-0.014-0.20961-0.0419-0.41364-0.0684-0.55196s-0.0517-0.21101-0.0811-0.18866c-0.0294 0.0223-0.0629 0.13972-0.10622 0.32558-0.0433 0.18587-0.0964 0.44018-0.18026 0.71407-0.0839 0.27389-0.19843 0.56733-0.40525 0.90969s-0.50585 0.73362-0.66935 0.95163-0.19145 0.26275-0.20539 0.28507c-0.014 0.0223-0.014 0.0223 0.0768-0.014z"/>
   <path d="m127.64 158.42c-0.0266-0.1439-0.0797-0.43177-0.0922-0.71266-0.0126-0.28089 0.0153-0.55477 0.0712-0.82169 0.0559-0.26691 0.13973-0.52681 0.25991-0.77276 0.12017-0.24596 0.27668-0.47792 0.38427-0.63302s0.1663-0.23338 0.18166-0.21939c0.0154 0.014-0.0126 0.12016-0.0587 0.28367-0.0461 0.1635-0.11041 0.38429-0.15791 0.63304s-0.0782 0.52542-0.0866 0.74202c-8e-3 0.2166 6e-3 0.37311 3e-3 0.51424-3e-3 0.14114-0.0224 0.2669-0.0699 0.40942s-0.12298 0.30182-0.18029 0.40944c-0.0573 0.10762-0.0964 0.16347-0.13133 0.20679-0.0349 0.0433-0.0656 0.074-0.081 0.0894s-0.0153 0.0154-0.0418-0.12849z"/>
   <circle cx="130.03" cy="155.36" r=".68772"/>
  </g>
 </g>
</svg>
