<?xml version="1.0" encoding="UTF-8"?>
<!-- Created with Inkscape (http://www.inkscape.org/) -->
<svg width="10.491mm" height="14.896mm" version="1.1" viewBox="0 0 10.491 14.896" xmlns="http://www.w3.org/2000/svg">
 <g transform="translate(-124.77 -136.42)">
  <g fill="#38374b">
   <path d="m127.9 148.66c-0.0128 1.9e-4 -0.0262 2e-3 -0.0351 3e-3 -0.018 2e-3 -0.0182 2e-3 -0.0522 0.0191-0.034 0.017-0.10194 0.0515-0.17001 0.11007-0.0681 0.0586-0.13612 0.14169-0.17105 0.23151-0.0349 0.0898-0.0367 0.18629-0.0357 0.29972 8e-4 0.11343 4e-3 0.24381-0.0269 0.38654-0.0312 0.14274-0.097 0.29752-0.16226 0.42892-0.0652 0.13139-0.11038 0.24867-0.15038 0.30644-0.0149 0.0215-0.0285 0.0413-0.0398 0.0584-0.14057-0.0428-0.22987-0.0854-0.28474-0.1142-0.0557-0.0293-0.0764-0.0445-0.10387-0.0227-0.0275 0.0217-0.0613 0.0805-0.0868 0.16846-0.0255 0.0879-0.0425 0.20501-0.0434 0.29198-8e-4 0.087 0.014 0.14335 0.1142 0.19533 0.10021 0.052 0.28535 0.0995 0.59635 0.14676 0.31098 0.0473 0.74771 0.0943 1.2015 0.11886 0.45373 0.0246 0.92471 0.0263 1.4144 0.0207 0.48964-5e-3 0.99782-0.0188 1.479-0.0434 0.48114-0.0246 0.93496-0.0607 1.2686-0.0966s0.54744-0.0717 0.67128-0.0982c0.12383-0.0265 0.15767-0.0437 0.17467-0.0522 0.017-9e-3 0.0174-8e-3 0.0155-0.0475-2e-3 -0.0397-6e-3 -0.11915-0.0134-0.21084-8e-3 -0.0917-0.0188-0.19542-0.0434-0.2682-0.0246-0.0728-0.0627-0.11472-0.10335-0.12609-0.0407-0.0114-0.0838 8e-3 -0.21239 0.0522-0.0419 0.0145-0.0956 0.0317-0.15348 0.0501-2e-3 -5e-3 -4e-3 -0.0105-8e-3 -0.016-0.0366-0.06-0.0852-0.17505-0.15038-0.30644-0.0652-0.1314-0.1316-0.28618-0.16278-0.42892-0.0312-0.14273-0.027-0.27311-0.0264-0.38654 1e-3 -0.11343-7.9e-4 -0.2099-0.0357-0.29972-0.0349-0.0898-0.10299-0.17286-0.17105-0.23151-0.0681-0.0587-0.13599-0.0925-0.17002-0.10955v-5.3e-4c-0.034-0.0169-0.0342-0.0171-0.0522-0.0191s-0.0538-5e-3 -0.0661 2e-3c-0.0124 8e-3 -2e-3 0.0268 3e-3 0.0646 4e-3 0.0378-8e-5 0.0942 0.0103 0.13488 0.0104 0.0407 0.0349 0.0654 0.0765 0.091 0.0416 0.0255 0.10007 0.0519 0.13126 0.0935 0.0312 0.0416 0.0352 0.0981 0.0134 0.16898-0.0217 0.0709-0.0689 0.15638-0.14263 0.25373-0.0737 0.0974-0.17378 0.2068-0.31368 0.31833-0.1399 0.11154-0.31968 0.22506-0.50023 0.34416-0.18054 0.11911-0.36233 0.244-0.55138 0.35554-0.18906 0.11154-0.37673 0.2306-0.49041 0.26665-0.0498 0.0158-0.0807 0.0282-0.0992 0.0382-0.0928 7e-3 -0.17537 0.0128-0.22273 0.0114-0.0518-2e-3 -0.12395-7e-3 -0.20463-0.0124-0.0184-0.0107-0.0542-0.0249-0.11886-0.0444-0.11417-0.0344-0.30187-0.1546-0.49093-0.26614-0.18905-0.11154-0.37032-0.23643-0.55087-0.35553-0.18054-0.1191-0.36032-0.23263-0.50023-0.34417-0.1399-0.11153-0.23994-0.22097-0.31367-0.31832-0.0737-0.0974-0.12088-0.18282-0.14263-0.25373-0.0218-0.0709-0.0183-0.12737 0.0129-0.16899 0.0312-0.0416 0.0902-0.068 0.13178-0.0935 0.0416-0.0255 0.0661-0.0503 0.0765-0.091s7e-3 -0.0971 0.0103-0.13488c4e-3 -0.0378 0.015-0.057 3e-3 -0.0646-6e-3 -4e-3 -0.0183-5e-3 -0.031-5e-3z" stroke-width=".67644"/>
   <path d="m127.81 149.05c1e-3 0.0415 4e-3 0.12434 0.0408 0.21257 0.0368 0.0882 0.10763 0.1818 0.18518 0.26201 0.0776 0.0802 0.16175 0.14704 0.21588 0.18112 0.0541 0.0341 0.0782 0.0354 0.11496-0.0548 0.0367-0.0902 0.0862-0.27202 0.12163-0.46184 0.0354-0.18982 0.0568-0.38766 0.0695-0.58484s0.0167-0.39369 0.0177-0.56948c6.8e-4 -0.17579-1e-3 -0.33086-0.0238-0.51615-0.0227-0.1853-0.0662-0.40081-0.15225-0.63524-0.086-0.23443-0.21457-0.48775-0.33462-0.70141-0.12005-0.21363-0.23158-0.38755-0.38661-0.58984-0.15502-0.20229-0.35351-0.43293-0.52839-0.63522-0.17487-0.20229-0.32612-0.37621-0.53975-0.57188-0.21363-0.19568-0.48963-0.41308-0.72406-0.55866s-0.42726-0.21931-0.57377-0.25334c-0.14651-0.034-0.24672-0.0283-0.28831-0.0141-0.0416 0.0142-0.0246 0.0369 0.0454 0.10492 0.07 0.0681 0.19285 0.18151 0.42444 0.42066 0.2316 0.23916 0.57188 0.60402 0.83751 0.91408s0.45655 0.56526 0.61063 0.77987c0.15408 0.21458 0.27128 0.3885 0.37716 0.57756 0.10586 0.18905 0.20039 0.39322 0.27695 0.60591 0.0766 0.21268 0.13517 0.43387 0.17864 0.65223 0.0435 0.21836 0.0718 0.43387 0.0832 0.63804 0.0114 0.20418 5e-3 0.39701-5e-3 0.52121-0.0111 0.12419-0.0276 0.17975-0.0358 0.20751-8e-3 0.0277-8e-3 0.0277-7e-3 0.0692z" stroke-width=".67645"/>
   <path d="m132.22 149.06c-1e-3 0.0415-4e-3 0.12434-0.0408 0.21256-0.0368 0.0882-0.10763 0.18181-0.18517 0.26202-0.0775 0.0802-0.16175 0.14704-0.21588 0.18112-0.0541 0.0341-0.0782 0.0354-0.11496-0.0548-0.0367-0.0902-0.0862-0.27201-0.12163-0.46184-0.0354-0.18983-0.0568-0.38766-0.0695-0.58484s-0.0167-0.39369-0.0177-0.56948c-6.8e-4 -0.17579 1e-3 -0.33086 0.0238-0.51615 0.0227-0.1853 0.0662-0.40081 0.15225-0.63524 0.086-0.23443 0.21456-0.48775 0.33461-0.70141 0.12005-0.21363 0.23158-0.38755 0.38661-0.58984 0.15502-0.20228 0.35353-0.43293 0.5284-0.63522s0.32611-0.37621 0.53974-0.57188c0.21363-0.19568 0.48964-0.41308 0.72406-0.55866 0.23443-0.14558 0.42725-0.2193 0.57377-0.25334 0.14651-0.034 0.24672-0.0283 0.28831-0.0141 0.0416 0.0142 0.0246 0.0369-0.0454 0.10493-0.07 0.0681-0.19284 0.18149-0.42443 0.42065-0.23159 0.23915-0.57188 0.60401-0.83751 0.91408-0.26562 0.31007-0.45655 0.56527-0.61063 0.77988-0.15408 0.21457-0.27129 0.3885-0.37716 0.57755-0.10586 0.18906-0.20038 0.39323-0.27695 0.60591-0.0766 0.21269-0.13517 0.43388-0.17865 0.65223-0.0435 0.21836-0.0718 0.43388-0.0832 0.63805s-5e-3 0.397 5e-3 0.5212c0.0111 0.1242 0.0276 0.17975 0.0358 0.20752 8e-3 0.0278 8e-3 0.0277 7e-3 0.0691z" stroke-width=".67645"/>
   <path d="m134.18 137.6c-2e-3 2.7e-4 -3e-3 2e-3 -4e-3 3e-3 -3e-3 4e-3 -5e-3 0.0119-5e-3 0.0238-1e-3 0.0473 0.0151 0.15543 0.0367 0.35657s0.0488 0.4954 0.0636 0.76946c0.0148 0.27403 0.0173 0.52786-2e-3 0.81132-0.0189 0.28346-0.0593 0.59626-0.13488 0.90537-0.0756 0.30913-0.18655 0.6146-0.31884 0.88057-0.13229 0.26596-0.28591 0.49232-0.43305 0.68264-0.14714 0.19033-0.28782 0.34427-0.44442 0.49816-0.15659 0.1539-0.32906 0.30809-0.42219 0.37156-0.0931 0.0634-0.10656 0.036-0.12816-0.0868-0.0216-0.12285-0.0514-0.34108-0.0946-0.46664-0.0432-0.12555-0.0999-0.15794-0.49816-0.0837-0.39824 0.0742-1.1383 0.2548-1.7322 0.28991-0.59392 0.0351-1.0418-0.0753-1.3792-0.16846-0.33748-0.0932-0.56435-0.16882-0.70073-0.20258-0.13634-0.0337-0.18216-0.0257-0.21187 0.0134-0.0297 0.0392-0.0436 0.10935-0.0692 0.2403s-0.0631 0.32274-0.0915 0.41858c-0.0283 0.0958-0.0472 0.0958-0.12815 0.031-0.081-0.0648-0.2241-0.19433-0.37259-0.34417-0.1485-0.14984-0.30258-0.3199-0.46457-0.53589-0.162-0.21598-0.33216-0.47794-0.46716-0.77359-0.135-0.29564-0.23492-0.62511-0.29972-0.92346-0.0648-0.29834-0.0943-0.56567-0.10645-0.82217-0.0122-0.25649-7e-3 -0.5023 9e-3 -0.74931 0.0162-0.24704 0.0433-0.49507 0.0636-0.66921 0.0202-0.17414 0.0335-0.27408 0.0362-0.34158 3e-3 -0.0675-5e-3 -0.10268-0.0863-4e-3 -0.081 0.0985-0.23452 0.33059-0.38706 0.58033-0.15255 0.24974-0.30373 0.5171-0.42116 0.83974-0.11745 0.32265-0.2012 0.70089-0.20929 1.1302-8e-3 0.42928 0.059 0.90966 0.14676 1.3146 0.0877 0.40499 0.19607 0.73405 0.28112 0.96222 0.085 0.22817 0.14709 0.35539 0.18758 0.41341 0.0405 0.058 0.0595 0.047 0.11214 5e-3 0.0526-0.0419 0.13895-0.11472 0.19431-0.13901 0.0553-0.0243 0.0793 1e-4 0.15089 0.11214 0.0715 0.11205 0.19077 0.31173 0.36897 0.54932s0.41542 0.51302 0.66921 0.78031 0.52409 0.52651 0.74414 0.75603c0.22004 0.22949 0.39002 0.42913 0.53175 0.64647 0.14174 0.21734 0.25524 0.45244 0.35243 0.69815 0.0972 0.24569 0.1782 0.50228 0.2403 0.76688s0.10536 0.53711 0.11885 0.80305c0.0135 0.26594-3e-3 0.52507-0.0475 0.80719-0.0446 0.28213-0.11749 0.5875-0.16743 0.78186-0.0499 0.19439-0.0766 0.2777-0.0563 0.3452s0.0878 0.11876 0.32401 0.2713c0.23625 0.15254 0.63807 0.41156 0.87024 0.53072 0.1099 0.0564 0.32488 0.0591 0.53071-0.031 0.2647-0.11583 0.6872-0.44399 0.90589-0.60461 0.21868-0.16062 0.21597-0.1878 0.18087-0.339-0.0351-0.15119-0.10273-0.42639-0.14728-0.72605-0.0446-0.29969-0.0657-0.62413-0.063-0.95757 3e-3 -0.33344 0.0296-0.67626 0.10386-0.9989 0.0742-0.32265 0.1955-0.62467 0.36019-0.9338 0.1647-0.30914 0.37277-0.62514 0.59686-0.89917 0.2241-0.27403 0.46449-0.50622 0.68316-0.72088 0.21868-0.21466 0.41561-0.41174 0.58705-0.61288s0.31721-0.40659 0.44545-0.58343 0.23893-0.32514 0.30644-0.39533c0.0675-0.0702 0.0917-0.0621 0.1416-0.0351s0.12568 0.0732 0.17156 0.0894c0.0459 0.0162 0.0623 2e-3 0.10956-0.0894 0.0473-0.0918 0.12537-0.26164 0.19016-0.42633 0.0648-0.16469 0.11626-0.32433 0.16485-0.49713 0.0486-0.17279 0.0945-0.35865 0.13229-0.57464 0.0378-0.21599 0.0674-0.46163 0.0687-0.73432 1e-3 -0.27269-0.0258-0.57245-0.0744-0.85731-0.0486-0.28483-0.11867-0.55507-0.22531-0.83044s-0.2496-0.55612-0.38189-0.77618c-0.13229-0.22005-0.25382-0.3792-0.32401-0.46561-0.046-0.0567-0.0702-0.0823-0.0816-0.0796z" stroke-width=".67644"/>
  </g>
  <circle cx="130.05" cy="139.71" r="3.2927" fill="#9f8fed" stroke-width=".26043"/>
 </g>
</svg>
